{"title":"Dune 2000 MINISERIES BDRip 720p Multilanguage","uid":14634355,"size":10790774060,"categoryP":"video","categoryS":"hd___tv_shows","magnet":"?xt=urn:btih:131a08b71a769201661056fbba71983066663d03&amp;dn=Dune+2000+MINISERIES+BDRip+720p+Multilanguage&amp;tr=udp%3A%2F%2Ftracker.leechers-paradise.org%3A6969&amp;tr=udp%3A%2F%2Fzer0day.ch%3A1337&amp;tr=udp%3A%2F%2Fopen.demonii.com%3A1337&amp;tr=udp%3A%2F%2Ftracker.coppersurfer.tk%3A6969&amp;tr=udp%3A%2F%2Fexodus.desync.com%3A6969","seeders":15,"leechers":7,"uploader":"Cazador75","files":3,"time":1463411045,"description":"Audio: English\r\nSubtitles/legendas: Portuguese, English, Czech, French (MKV track)\r\n\r\n=================================================================\r\n\r\nA three-part miniseries on politics, betrayal, lust, greed and the coming of a Messiah. Based on Frank Herbert's classic science fiction novel. \r\n\r\nDirector's Cut\r\n=================================================================\r\n\r\nSe levarmos em conta que os efeitos visuais nunca foram o tema central na obra de Frank Herbert, a mini série pode até ter um saldo positivo. O despertar espiritual, a ecologia, as intrigas políticas, o contraste de uma civilização dividida em castas feudais dominando um futuro improvável e a exploração desumana dos mais miseráveis, pateticamente a lutar, sempre renderam bom entretenimento.\r\n\r\nVersão do Diretor que inclui várias cenas transmitidas no mundo inteiro mas não nos \r\nEUA.\r\n===================================================================\r\nVideo\r\nID                             : 1\r\nFormat                         : AVC\r\nFormat/Info                    : Advanced Video Codec\r\nFormat profile                 :   \r\nFormat settings, CABAC         : Yes\r\nFormat settings, ReFrames      : 4 frames\r\nCodec ID                       : V_MPEG4/ISO/AVC\r\nDuration                       : 1h 31mn\r\nBit rate                       : 4 500 Kbps\r\nWidth                          : 1 272 pixels\r\nHeight                         : 720 pixels\r\nDisplay aspect ratio           : 16:9\r\nFrame rate mode                : Constant\r\nFrame rate                     : 25.000 fps\r\nColor space                    : YUV\r\nChroma subsampling             : 4:2:0\r\nBit depth                      : 8 bits\r\nScan type                      : Progressive\r\nBits/(Pixel*Frame)             : 0.197\r\nStream size                    : 2.82 GiB (86%)\r\n\r\nAudio\r\nID                             : 2\r\nFormat                         : AC-3\r\nFormat/Info                    : Audio Coding 3\r\nMode extension                 : CM (complete main)\r\nFormat settings, Endianness    : Big\r\nCodec ID                       : A_AC3\r\nDuration                       : 1h 31mn\r\nBit rate mode                  : Constant\r\nBit rate                       : 640 Kbps\r\nChannel(s)                     : 6 channels\r\nChannel positions              : Front: L C R, Side: L R, LFE\r\nSampling rate                  : 48.0 KHz\r\nBit depth                      : 16 bits\r\nCompression mode               : Lossy\r\nStream size                    : 420 MiB (12%)\r\nLanguage                       : English\r\nDefault                        : Yes\r\nForced                         : No\r\n\r\nText #1\r\nID                             : 3\r\nFormat                         : UTF-8\r\nCodec ID                       : S_TEXT/UTF8\r\nCodec ID/Info                  : UTF-8 Plain Text\r\nLanguage                       : Portuguese\r\nDefault                        : Yes\r\nForced                         : No\r\n\r\nText #2\r\nID                             : 4\r\nFormat                         : UTF-8\r\nCodec ID                       : S_TEXT/UTF8\r\nCodec ID/Info                  : UTF-8 Plain Text\r\nLanguage                       : English\r\nDefault                        : No\r\nForced                         : No\r\n\r\nText #3\r\nID                             : 5\r\nFormat                         : UTF-8\r\nCodec ID                       : S_TEXT/UTF8\r\nCodec ID/Info                  : UTF-8 Plain Text\r\nLanguage                       : Czech\r\nDefault                        : No\r\nForced                         : No\r\n\r\nText #4\r\nID                             : 6\r\nFormat                         : UTF-8\r\nCodec ID                       : S_TEXT/UTF8\r\nCodec ID/Info                  : UTF-8 Plain Text\r\nLanguage                       : French\r\nDefault                        : No\r\nForced                         : No","torrent":{"xt":"urn:btih:131a08b71a769201661056fbba71983066663d03","amp;dn":"Dune+2000+MINISERIES+BDRip+720p+Multilanguage","amp;tr":["udp%3A%2F%2Ftracker.leechers-paradise.org%3A6969","udp%3A%2F%2Fzer0day.ch%3A1337","udp%3A%2F%2Fopen.demonii.com%3A1337","udp%3A%2F%2Ftracker.coppersurfer.tk%3A6969","udp%3A%2F%2Fexodus.desync.com%3A6969"],"infoHash":"131a08b71a769201661056fbba71983066663d03","infoHashBuffer":{"type":"Buffer","data":[19,26,8,183,26,118,146,1,102,16,86,251,186,113,152,48,102,102,61,3]},"announce":[],"urlList":[]}}